<?xml version="1.0" encoding="UTF-8" standalone="no"?>
<!-- Created with Inkscape (http://www.inkscape.org/) -->

<svg
   width="151.321mm"
   height="84.573181mm"
   viewBox="0 0 151.321 84.57318"
   version="1.1"
   id="svg1"
   inkscape:version="1.4 (e7c3feb100, 2024-10-09)"
   sodipodi:docname="new_logo_polyphonic_large_white.svg"
   inkscape:export-filename="new_logo_polyphonic_large.png"
   inkscape:export-xdpi="824.15002"
   inkscape:export-ydpi="824.15002"
   xmlns:inkscape="http://www.inkscape.org/namespaces/inkscape"
   xmlns:sodipodi="http://sodipodi.sourceforge.net/DTD/sodipodi-0.dtd"
   xmlns="http://www.w3.org/2000/svg"
   xmlns:svg="http://www.w3.org/2000/svg">
  <sodipodi:namedview
     id="namedview1"
     pagecolor="#505050"
     bordercolor="#ffffff"
     borderopacity="1"
     inkscape:showpageshadow="0"
     inkscape:pageopacity="0"
     inkscape:pagecheckerboard="1"
     inkscape:deskcolor="#505050"
     inkscape:document-units="mm"
     inkscape:zoom="0.99153997"
     inkscape:cx="224.39842"
     inkscape:cy="36.30716"
     inkscape:window-width="1920"
     inkscape:window-height="1094"
     inkscape:window-x="0"
     inkscape:window-y="38"
     inkscape:window-maximized="1"
     inkscape:current-layer="layer1" />
  <defs
     id="defs1">
    <rect
       x="-241.6559"
       y="-313.42038"
       width="664.91986"
       height="235.79758"
       id="rect1" />
  </defs>
  <g
     inkscape:label="Calque 1"
     inkscape:groupmode="layer"
     id="layer1"
     transform="translate(-23.075803,-66.644738)">
    <path
       id="rect9-0"
       style="fill:#ffffff;fill-opacity:1;stroke-width:3.83299;stroke-linejoin:round"
       d="m 98.315232,79.296653 c -8.868643,0 -16.057621,7.191253 -16.057616,16.059939 0,0.01456 -4.1e-5,0.02876 0,0.04332 h -0.0044 v 3.44958 c 4.059266,0.793082 7.121612,4.350198 7.12074,8.619358 -0.0035,0.0538 -0.0072,0.10844 -0.01151,0.16219 v 4.6101 c 0.595896,-0.22525 1.227095,-0.34284 1.864139,-0.34725 0.609415,6.9e-4 1.214275,0.10499 1.788757,0.30839 v -5.69294 c -7e-4,-0.0106 -0.001,-0.0212 -0.002,-0.0319 7e-4,-0.0106 0.001,-0.0213 0.002,-0.0319 v -0.0595 c 0,-0.10052 0.01,-0.19867 0.0252,-0.29468 0.202037,-2.80777 2.535235,-4.98453 5.35025,-4.9916 2.970028,-6e-5 5.377728,2.40765 5.377668,5.37768 -0.005,0.116 -0.0132,0.23182 -0.0252,0.34724 0.0221,0.11383 0.0345,0.2313 0.0345,0.35181 v 0.0434 c 0.57046,-0.20446 1.17137,-0.31109 1.77735,-0.31525 0.61185,6.7e-4 1.21909,0.10575 1.79559,0.3107 0.16592,-4.08484 3.11946,-7.448849 7.01567,-8.242428 v -3.3422 c 7.9e-4,-0.09177 0.006,-0.182002 0.006,-0.274132 0,-8.868683 -7.18898,-16.059935 -16.057658,-16.059935 z m -7.138981,15.902309 a 1.7871235,1.7871235 0 0 1 1.786461,1.78647 1.7871235,1.7871235 0 0 1 -1.786461,1.788757 1.7871235,1.7871235 0 0 1 -1.78647,-1.788757 1.7871235,1.7871235 0 0 1 1.78647,-1.78647 z m 14.275719,0 a 1.7871235,1.7871235 0 0 1 1.78646,1.78647 1.7871235,1.7871235 0 0 1 -1.78646,1.788757 1.7871235,1.7871235 0 0 1 -1.78875,-1.788757 1.7871235,1.7871235 0 0 1 1.78875,-1.78647 z m -5.27946,16.338648 c -0.571757,0.20579 -1.174234,0.31312 -1.781878,0.31753 -0.603547,-0.004 -1.202054,-0.11002 -1.770471,-0.31298 v 6.91513 h 3.552349 z m 7.17101,5.80258 c -0.57379,0.20735 -1.17866,0.31548 -1.78875,0.31985 -0.60598,-0.004 -1.20688,-0.11078 -1.77733,-0.31524 v 1.11254 h 3.56608 z" />
    <rect
       style="fill:#ffffff;fill-opacity:1;stroke-width:6.41792;stroke-linejoin:round"
       id="rect3-79-8"
       width="3.558301"
       height="17.531891"
       x="103.77324"
       y="110.46479"
       ry="1.7791461" />
    <rect
       style="fill:#ffffff;fill-opacity:1;stroke-width:6.41792;stroke-linejoin:round"
       id="rect3-7-20"
       width="3.5583096"
       height="23.382151"
       x="96.615196"
       y="104.6145"
       ry="1.7791461" />
    <rect
       style="fill:#ffffff;fill-opacity:1;stroke-width:6.41792;stroke-linejoin:round"
       id="rect3-79"
       width="3.5582922"
       height="12.619693"
       x="89.457123"
       y="115.37698"
       ry="1.7791461" />
    <rect
       style="fill:#ffffff;fill-opacity:1;stroke-width:4.20856;stroke-linecap:round;stroke-linejoin:round;paint-order:stroke fill markers"
       id="rect5"
       width="0.06218002"
       height="0.12436004"
       x="105.13924"
       y="117.44138"
       ry="0.03109001" />
    <path
       id="path7"
       style="fill:#ffffff;fill-opacity:1;stroke-width:4.42075;stroke-linecap:round;stroke-linejoin:round;paint-order:stroke fill markers"
       d="m 82.257027,102.63869 c -0.419618,-0.0147 -0.855981,0.0416 -1.277031,0.1599 -0.08771,0.023 -0.174575,0.0487 -0.260426,0.0777 -0.0048,9.5e-4 -0.0089,0.005 -0.0137,0.008 -1.262191,0.43025 -2.262222,1.52398 -2.56091,2.82361 -0.07205,0.1991 -0.09045,0.35919 -0.153047,0.56656 -0.583822,1.93389 -0.903716,4.45101 -1.62427,7.98656 -0.812195,3.98523 -1.281532,6.8791 -1.839011,8.45261 -0.278729,0.78673 -0.576847,1.17304 -0.742458,1.34784 -0.09416,0.0994 -0.301405,0.22718 -0.84526,0.22385 -0.471176,-0.002 -0.787263,-0.16418 -1.217634,-0.61223 -0.43036,-0.44803 -0.863819,-1.1813 -1.190217,-1.96922 -0.652793,-1.57587 -0.890948,-3.22799 -0.890948,-3.22799 -0.137132,-0.9687 -1.035136,-1.64279 -2.003493,-1.50318 -0.964842,0.13726 -1.635293,1.02909 -1.500908,1.99435 0,0 0.266925,2.00834 1.130819,4.0938 0.431953,1.04273 1.005475,2.13392 1.898409,3.06349 0.892934,0.92957 2.214742,1.69257 3.755697,1.70194 1.161251,0.008 2.339475,-0.35418 3.195995,-1.10568 0.856516,-0.7515 1.35702,-1.73401 1.743062,-2.82364 0.772088,-2.17921 1.173586,-5.02376 1.969228,-8.92776 0.582452,-2.85794 0.942557,-5.08154 1.274741,-6.58846 l 0.367806,-1.87328 0.01149,-0.002 c 0.04624,-0.1942 0.218827,-0.33959 0.427177,-0.34039 0.244909,-3.2e-4 0.443508,0.19827 0.44319,0.4432 8e-6,0.01 -0.0017,0.0181 -0.0022,0.0273 l -0.07081,3.18 h -0.0023 c 0.0092,3.92071 0.02962,16.42091 0.02962,16.42091 0.0038,0.97796 0.799378,1.76707 1.777332,1.76133 0.974581,-0.004 1.762296,-0.7936 1.761338,-1.76819 0,0 -0.03758,-19.08418 -0.04333,-19.18741 -0.0092,-0.16369 -0.0092,-0.34606 -0.0137,-0.51857 1.67e-4,-1.44975 -0.813869,-2.77676 -2.106298,-3.4336 -0.389688,-0.24445 -0.873805,-0.43092 -1.427801,-0.45004 z"
       sodipodi:nodetypes="scsccssssssscccssssssccccsccccccsccs" />
    <path
       id="path7-7"
       style="fill:#ffffff;fill-opacity:1;stroke-width:4.42075;stroke-linecap:round;stroke-linejoin:round;paint-order:stroke fill markers"
       d="m 114.47737,102.63869 c 0.41962,-0.0147 0.85599,0.0416 1.27704,0.1599 0.0877,0.023 0.17458,0.0487 0.26042,0.0777 0.005,9.5e-4 0.009,0.005 0.0137,0.008 1.26219,0.43025 2.26223,1.52398 2.56091,2.82361 0.072,0.1991 0.0905,0.35919 0.15305,0.56656 0.58381,1.93389 0.90371,4.45101 1.62427,7.98656 0.81219,3.98523 1.28152,6.8791 1.83902,8.45261 0.27871,0.78673 0.57683,1.17304 0.74244,1.34784 0.0942,0.0994 0.30141,0.22718 0.84526,0.22385 0.47117,-0.002 0.78727,-0.16418 1.21764,-0.61223 0.43035,-0.44803 0.86381,-1.1813 1.19023,-1.96922 0.65277,-1.57587 0.89094,-3.22799 0.89094,-3.22799 0.13712,-0.9687 1.03514,-1.64279 2.00349,-1.50318 0.96484,0.13726 1.63529,1.02909 1.5009,1.99435 0,0 -0.26692,2.00834 -1.13082,4.0938 -0.43194,1.04273 -1.00547,2.13392 -1.89839,3.06349 -0.89296,0.92957 -2.21476,1.69257 -3.75572,1.70194 -1.16125,0.008 -2.33946,-0.35418 -3.19599,-1.10568 -0.85651,-0.7515 -1.35702,-1.73401 -1.74306,-2.82364 -0.77208,-2.17921 -1.17358,-5.02376 -1.96923,-8.92776 -0.58244,-2.85794 -0.94255,-5.08154 -1.27473,-6.58846 l -0.36781,-1.87328 -0.0115,-0.002 c -0.0463,-0.1942 -0.21883,-0.33959 -0.42717,-0.34039 -0.24492,-3.2e-4 -0.44351,0.19827 -0.44321,0.4432 0,0.01 7.9e-4,0.0181 0.002,0.0273 l 0.0708,3.18 h 0.002 c -0.01,3.92071 -0.0296,16.42091 -0.0296,16.42091 -0.004,0.97796 -0.79938,1.76707 -1.77733,1.76133 -0.97458,-0.004 -1.7623,-0.7936 -1.76134,-1.76819 0,0 0.0376,-19.08418 0.0433,-19.18741 0.01,-0.16369 0.01,-0.34606 0.0137,-0.51857 -1.7e-4,-1.44975 0.81387,-2.77676 2.10629,-3.4336 0.38969,-0.24445 0.87381,-0.43092 1.4278,-0.45004 z"
       sodipodi:nodetypes="scsccssssssscccssssssccccsccccccsccs" />
    <path
       d="m -221.5,-270.2668 v 24.04688 h -14.0625 v -68.25 h 26.625 q 7.6875,0 13.5,2.8125 5.85938,2.8125 9,8.01562 3.14063,5.15625 3.14063,11.76563 0,10.03125 -6.89063,15.84375 -6.84375,5.76562 -18.98437,5.76562 z m 0,-11.39062 h 12.5625 q 5.57813,0 8.48438,-2.625 2.95312,-2.625 2.95312,-7.5 0,-5.01563 -2.95312,-8.10938 -2.95313,-3.09375 -8.15625,-3.1875 H -221.5 Z m 103.92187,2.85937 q 0,10.07813 -3.5625,17.67188 -3.5625,7.59375 -10.21874,11.71875 -6.60938,4.125 -15.1875,4.125 -8.48438,0 -15.14063,-4.07813 -6.65625,-4.07812 -10.3125,-11.625 -3.65625,-7.59375 -3.70312,-17.4375 v -3.375 q 0,-10.07812 3.60937,-17.71875 3.65625,-7.6875 10.26563,-11.76562 6.65625,-4.125 15.1875,-4.125 8.53125,0 15.14062,4.125 6.65625,4.07812 10.26562,11.76562 3.65625,7.64063 3.65625,17.67188 z m -14.24999,-3.09375 q 0,-10.73437 -3.84375,-16.3125 -3.84375,-5.57812 -10.96875,-5.57812 -7.07813,0 -10.92188,5.53125 -3.84375,5.48437 -3.89062,16.125 v 3.32812 q 0,10.45313 3.84375,16.21875 3.84375,5.76563 11.0625,5.76563 7.07812,0 10.875,-5.53125 3.79687,-5.57813 3.84375,-16.21875 z m 38.531245,24.375 H -63.4375 v 11.29688 h -43.92188 v -68.25 h 14.062505 z m 48.375,-26.20312 14.203125,-30.75 h 15.375 l -22.40625,43.5 v 24.75 h -14.296875 v -24.75 l -22.40625,-43.5 h 15.421875 z m 49.875,13.45312 v 24.04688 h -14.0625 v -68.25 h 26.625 q 7.6875,0 13.5,2.8125 5.859375,2.8125 9,8.01562 3.140625,5.15625 3.140625,11.76563 0,10.03125 -6.890625,15.84375 -6.84375,5.76562 -18.984375,5.76562 z m 0,-11.39062 h 12.5625 q 5.578125,0 8.484375,-2.625 2.953125,-2.625 2.953125,-7.5 0,-5.01563 -2.953125,-8.10938 -2.953125,-3.09375 -8.15625,-3.1875 H 4.953125 Z m 103.406255,35.4375 H 94.296875 v -29.25 H 66.875 v 29.25 H 52.8125 v -68.25 H 66.875 v 27.65625 h 27.421875 v -27.65625 h 14.062505 z m 68.34374,-32.57813 q 0,10.07813 -3.5625,17.67188 -3.5625,7.59375 -10.21875,11.71875 -6.60937,4.125 -15.1875,4.125 -8.48437,0 -15.14062,-4.07813 -6.65625,-4.07812 -10.3125,-11.625 -3.65625,-7.59375 -3.70312,-17.4375 v -3.375 q 0,-10.07812 3.60937,-17.71875 3.65625,-7.6875 10.26562,-11.76562 6.65625,-4.125 15.1875,-4.125 8.53125,0 15.14063,4.125 6.65625,4.07812 10.26562,11.76562 3.65625,7.64063 3.65625,17.67188 z m -14.25,-3.09375 q 0,-10.73437 -3.84375,-16.3125 -3.84375,-5.57812 -10.96875,-5.57812 -7.07812,0 -10.92187,5.53125 -3.84375,5.48437 -3.89063,16.125 v 3.32812 q 0,10.45313 3.84375,16.21875 3.84375,5.76563 11.0625,5.76563 7.07813,0 10.875,-5.53125 3.79688,-5.57813 3.84375,-16.21875 z m 79.96875,35.67188 h -14.0625 l -27.375,-44.90625 v 44.90625 h -14.0625 v -68.25 h 14.0625 l 27.42188,45 v -45 h 14.01562 z m 27.23438,0 h -14.0625 v -68.25 h 14.0625 z m 66.60937,-22.73438 q -0.79687,11.01563 -8.15625,17.34375 -7.3125,6.32813 -19.3125,6.32813 -13.125,0 -20.67187,-8.8125 -7.5,-8.85938 -7.5,-24.28125 v -4.17188 q 0,-9.84375 3.46875,-17.34375 3.46875,-7.5 9.89062,-11.48437 6.46875,-4.03125 15,-4.03125 11.8125,0 19.03125,6.32812 7.21875,6.32813 8.34375,17.76563 h -14.0625 q -0.51562,-6.60938 -3.70312,-9.5625 -3.14063,-3 -9.60938,-3 -7.03125,0 -10.54687,5.0625 -3.46875,5.01562 -3.5625,15.60937 v 5.15625 q 0,11.0625 3.32812,16.17188 3.375,5.10937 10.59375,5.10937 6.51563,0 9.70313,-2.95312 3.23437,-3 3.70312,-9.23438 z"
       id="text1"
       style="font-weight:bold;font-size:96px;line-height:0.9;font-family:Roboto;-inkscape-font-specification:'Roboto Bold';letter-spacing:0px;white-space:pre;stroke-width:3.02362;stroke-linecap:round;stroke-linejoin:round;paint-order:stroke fill markers;fill:#ffffff"
       transform="matrix(0.26458333,0,0,0.26458333,85.401714,216.11556)"
       aria-label="POLYPHONIC" />
  </g>
</svg>
